<?xml version="1.0" standalone="no"?>
<!DOCTYPE svg PUBLIC "-//W3C//DTD SVG 20010904//EN"
 "http://www.w3.org/TR/2001/REC-SVG-20010904/DTD/svg10.dtd">
<svg version="1.0" xmlns="http://www.w3.org/2000/svg"
 width="1000.000000pt" height="1000.000000pt" viewBox="0 0 1000.000000 1000.000000"
 preserveAspectRatio="xMidYMid meet">

<g transform="translate(0.000000,1000.000000) scale(0.100000,-0.100000)"
fill="#000000" stroke="none">
<path d="M1715 6204 c-715 -327 -1303 -598 -1307 -602 -4 -4 392 -199 880
-433 l887 -425 7 -199 c3 -110 11 -371 18 -580 14 -479 15 -489 66 -533 50
-44 109 -72 154 -72 53 0 129 41 183 98 l47 51 0 133 c0 73 -7 358 -15 633 -8
275 -15 539 -15 587 l0 88 -667 334 -668 334 55 24 c30 13 420 181 866 373
l812 348 381 -162 381 -163 183 113 c100 62 188 118 195 124 11 10 -102 64
-555 265 -312 138 -572 254 -578 255 -5 2 -595 -264 -1310 -591z"/>
<path d="M7083 6566 c-101 -45 -185 -84 -187 -87 -2 -2 401 -200 895 -439 494
-239 898 -437 899 -440 0 -3 -346 -159 -769 -348 l-769 -342 -218 96 c-999
440 -1525 664 -1558 664 -67 0 -689 -282 -2323 -1056 -139 -65 -253 -121 -253
-124 0 -3 92 -51 204 -107 l205 -102 158 75 c781 374 1744 820 1929 894 62 25
77 27 114 19 132 -30 593 -238 1355 -613 l410 -202 1212 561 c667 308 1213
562 1212 565 0 4 -2299 1058 -2328 1067 -3 1 -88 -35 -188 -81z"/>
</g>
</svg>
